<?xml version="1.0" encoding="utf-8"?>
<!-- Generator: Adobe Illustrator 15.0.0, SVG Export Plug-In . SVG Version: 6.00 Build 0)  -->
<!DOCTYPE svg PUBLIC "-//W3C//DTD SVG 1.1//EN" "http://www.w3.org/Graphics/SVG/1.1/DTD/svg11.dtd">
<svg version="1.1" id="_x30_" xmlns="http://www.w3.org/2000/svg" xmlns:xlink="http://www.w3.org/1999/xlink" x="0px" y="0px"
	 width="899.922px" height="325.354px" viewBox="1 87.396 899.922 325.354" enable-background="new 1 87.396 899.922 325.354"
	 xml:space="preserve">
<g id="LWPOLYLINE_4_">
	
		<polyline fill="none" stroke="#000000" stroke-width="0.7087" stroke-linecap="round" stroke-linejoin="round" stroke-miterlimit="10" points="
		131.997,261.471 131.305,261.586 130.268,261.816 129.23,261.932 128.193,262.047 126.233,262.047 123.351,262.047 	"/>
</g>
<g id="LWPOLYLINE_5_">
	<polygon fill="none" stroke="#333333" stroke-miterlimit="10" points="93.724,301.935 92.571,301.703 91.648,301.588 
		91.303,301.588 90.957,301.588 90.726,301.703 90.611,301.819 90.38,301.935 90.265,302.165 90.265,302.396 90.265,302.626 
		90.265,302.741 90.265,302.972 90.38,303.087 90.035,303.202 89.919,303.202 89.573,303.317 89.228,303.433 88.882,303.663 
		88.536,303.778 88.19,304.009 87.729,304.355 87.268,304.816 86.691,305.393 86.461,305.854 86.346,306.084 86.346,306.199 
		86.346,306.43 86.346,306.545 86.346,306.892 86.346,307.122 86.576,307.698 86.807,308.044 87.037,308.39 87.268,308.735 
		87.614,309.197 87.959,309.543 88.42,310.004 88.997,310.35 89.343,310.58 90.035,310.811 90.611,310.811 90.957,310.811 
		91.418,310.695 91.879,310.465 92.34,310.234 92.917,310.004 93.263,309.773 93.724,309.658 94.3,309.543 94.992,309.312 
		95.799,309.312 96.375,309.312 96.605,309.312 96.029,307.583 95.337,306.199 94.761,304.816 94.3,303.663 94.069,302.741 
		93.839,302.05 	"/>
</g>
<g id="LWPOLYLINE_6_">
	<polygon fill="#333333" points="139.029,259.856 138.453,259.856 137.761,259.972 136.954,260.087 136.032,260.318 
		135.225,260.549 134.303,260.895 133.726,261.125 133.265,261.24 133.035,261.355 132.804,261.355 132.573,261.355 
		132.458,261.125 132.343,260.895 132.112,260.434 132.112,259.856 132.112,259.05 132.112,258.242 132.343,256.975 
		132.804,255.707 133.957,251.902 134.188,250.173 134.188,249.02 134.072,247.982 133.957,247.291 133.611,246.484 
		133.265,246.023 132.919,245.677 132.458,245.446 131.997,245.216 131.536,245.101 131.075,244.985 130.498,244.985 
		129.807,245.101 129,245.101 128.423,245.101 127.847,245.216 127.155,245.216 126.233,245.101 125.656,245.101 125.08,245.101 
		124.503,245.216 124.158,245.331 123.812,245.446 123.582,245.562 123.351,245.677 123.12,245.908 122.89,246.138 122.659,246.369 
		122.544,246.714 122.198,247.291 122.083,247.752 121.967,248.444 121.967,249.02 121.967,250.403 122.083,251.441 
		122.429,252.709 122.774,254.092 123.005,254.899 123.466,256.053 123.697,257.09 123.927,258.242 123.927,259.511 
		123.812,260.434 123.12,261.586 122.544,262.047 121.852,262.047 121.276,261.932 120.469,261.932 119.777,262.047 
		118.394,262.047 117.702,262.162 116.549,262.393 115.396,262.738 116.204,261.932 117.125,260.664 117.702,259.741 
		118.394,258.012 118.97,256.283 119.431,253.977 119.662,252.018 119.662,250.634 119.662,248.905 120.008,247.061 
		120.699,244.985 121.276,243.717 122.89,243.602 124.734,243.371 126.463,243.256 127.731,243.256 130.614,243.256 
		133.611,243.487 135.686,243.717 135.801,244.524 136.377,247.291 136.954,250.058 137.185,251.441 137.3,252.248 137.3,253.746 
		137.3,254.208 137.185,254.899 137.185,255.476 137.069,255.938 137.069,256.629 137.3,257.32 137.53,258.012 137.876,258.588 
		138.337,259.165 	"/>
</g>
<g id="LWPOLYLINE_7_">
	
		<polyline fill="none" stroke="#333333" stroke-width="0.7087" stroke-linecap="round" stroke-linejoin="round" stroke-miterlimit="10" points="
		131.997,261.471 131.767,261.125 131.651,260.549 131.536,259.856 131.536,259.05 131.651,258.127 131.882,256.859 
		132.343,255.592 133.38,251.787 133.611,250.173 133.611,249.02 133.611,248.098 133.38,247.406 133.035,246.714 132.804,246.369 
		132.573,246.138 132.228,245.908 131.767,245.677 131.42,245.677 130.959,245.562 130.498,245.562 129.807,245.562 129,245.677 
		128.423,245.677 127.847,245.677 127.155,245.677 126.233,245.677 125.656,245.677 125.195,245.677 124.619,245.677 
		124.388,245.792 124.042,245.908 123.812,246.023 123.697,246.138 123.466,246.369 123.351,246.484 123.12,246.714 
		123.005,246.945 122.774,247.406 122.659,247.867 122.544,248.559 122.429,249.02 122.544,250.288 122.659,251.326 122.89,252.594 
		123.235,253.861 123.582,254.784 123.927,255.938 124.273,256.975 124.503,258.127 124.388,259.511 124.388,260.549 
		123.466,261.932 123.351,262.047 	"/>
</g>
<g id="LWPOLYLINE_8_">
	<polyline fill="none" stroke="#333333" stroke-linecap="round" stroke-linejoin="round" stroke-miterlimit="10" points="
		124.388,257.551 124.734,257.781 125.08,258.127 125.311,258.242 125.541,258.357 126.002,258.473 126.348,258.588 127.04,258.703 
		127.847,258.703 128.423,258.588 129.115,258.357 129.691,258.127 130.498,257.551 131.42,256.975 	"/>
</g>
<g id="LWPOLYLINE_9_">
	<polygon fill="#333333" points="120.699,241.988 119.662,241.757 118.855,241.181 118.163,240.374 117.702,239.336 
		117.702,238.184 117.933,237.377 118.278,236.685 118.855,236.108 119.431,235.647 120.123,235.417 120.814,235.302 
		121.852,235.187 122.89,234.956 123.697,234.495 124.388,234.034 125.08,233.457 125.541,232.881 126.002,232.189 126.233,231.958 
		126.924,231.498 127.271,231.267 128.308,231.036 129.115,231.151 130.037,231.498 130.729,231.843 131.075,232.304 
		131.536,232.996 131.536,233.111 132.688,234.034 133.496,234.61 134.072,234.956 134.764,235.071 135.571,235.302 
		136.608,235.302 137.185,235.532 138.107,236.108 138.683,236.57 139.145,237.377 139.26,238.068 139.375,238.76 139.145,239.682 
		138.914,240.374 138.453,240.95 137.876,241.296 137.3,241.642 136.839,241.873 136.377,241.988 136.262,241.988 136.262,242.219 
		136.262,242.564 136.147,243.025 135.917,243.371 135.686,243.371 134.188,243.256 132.343,243.025 130.729,242.91 128.308,242.91 
		126.002,242.91 123.812,243.141 122.083,243.256 121.276,243.371 121.045,243.256 120.93,243.141 120.814,242.91 120.814,242.564 	
		"/>
</g>
<g id="LWPOLYLINE_10_">
	<path fill="none" stroke="#000000" stroke-linecap="round" stroke-linejoin="round" stroke-miterlimit="10" d="M175.343,227.347
		v27.322l0.922-2.075l0.922-1.383l0.922-1.038l1.038-0.807l1.383-0.807l1.153-0.461l0.922-0.115l0.922-0.115l2.767,1.729
		l-2.767,1.729l-1.384,0.23l-1.037,0.576l-1.038,1.037l-0.807,1.153l-0.346,0.807l-0.23,0.923l-0.116,0.807l-0.115,0.922h-11.528
		v-2.997c0.115-7.263-5.764-13.257-13.142-13.373c-2.651,0-5.188,0.691-7.378,2.19c-0.692-10.606-9.799-18.791-20.405-18.099
		c-9.799,0.576-17.523,8.416-18.099,18.099c-6.11-4.035-14.295-2.306-18.33,3.804c-1.383,2.19-2.19,4.727-2.19,7.378v2.997H75.855
		l-0.115-0.922l-0.115-0.807l-0.23-0.923l-0.346-0.807l-0.807-1.153l-1.038-1.037l-1.038-0.576l-1.383-0.23l-2.767-1.729
		l2.767-1.729l0.922,0.115l0.922,0.115l1.153,0.461l1.383,0.807l1.038,0.807l0.922,1.038l0.922,1.383l0.922,2.075v-27.322
		l1.729-5.418l1.729,5.418v22.71c2.421-9.568,11.758-15.678,21.442-14.18c2.536-6.801,7.839-12.104,14.641-14.641
		c12.911-4.842,27.437,1.729,32.278,14.641c9.799-1.614,19.137,4.496,21.442,14.18v-22.71l1.729-5.418L175.343,227.347z"/>
</g>
<g id="LWPOLYLINE_11_">
	<polygon fill="none" stroke="#000000" stroke-linecap="round" stroke-linejoin="round" stroke-miterlimit="10" points="
		168.426,268.964 176.034,268.964 178.225,259.972 166.12,259.972 	"/>
</g>
<g id="LWPOLYLINE_12_">
	<polygon fill="none" stroke="#000000" stroke-linecap="round" stroke-linejoin="round" stroke-miterlimit="10" points="
		77.7,268.964 85.308,268.964 87.499,259.972 75.509,259.972 	"/>
</g>
<g id="LWPOLYLINE_13_">
	<polygon fill="none" stroke="#000000" stroke-linecap="round" stroke-linejoin="round" stroke-miterlimit="10" points="
		176.957,316.345 176.496,293.288 175.688,270.232 168.541,270.232 167.85,293.173 167.388,316.229 166.351,357.961 
		177.879,357.961 	"/>
</g>
<g id="LWPOLYLINE_14_">
	<polygon fill="none" stroke="#000000" stroke-linecap="round" stroke-linejoin="round" stroke-miterlimit="10" points="
		180.185,362.688 180.185,359.113 163.699,359.113 163.699,371.103 166.351,371.103 174.075,366.723 	"/>
</g>
<g id="LWPOLYLINE_15_">
	<polygon fill="none" stroke="#000000" stroke-linecap="round" stroke-linejoin="round" stroke-miterlimit="10" points="
		73.434,362.688 73.434,359.113 89.919,359.113 89.919,371.103 87.268,371.103 80.121,367.414 	"/>
</g>
<g id="LWPOLYLINE_16_">
	<polygon fill="none" stroke="#000000" stroke-linecap="round" stroke-linejoin="round" stroke-miterlimit="10" points="
		76.547,316.345 77.123,293.288 77.815,270.232 84.962,270.232 85.654,293.173 86.23,316.229 87.268,357.961 75.625,357.961 	"/>
</g>
<polygon fill="#333333" points="112.745,132.24 3.574,132.24 3.574,159.908 112.745,159.908 112.745,185.731 140.413,185.731 
	140.413,159.908 249.468,159.908 249.583,132.24 140.413,132.24 140.413,106.302 112.745,106.302 "/>
<path fill="#333333" stroke="#333333" stroke-width="5" stroke-linecap="round" stroke-linejoin="round" stroke-miterlimit="10" d="
	M249.468,187.46v-1.845H3.574v1.845v4.957v7.608l0.115,9.568l0.23,10.836l0.346,11.528l0.461,11.644l0.922,11.067l1.153,10.029
	l1.499,8.877l1.729,8.069l1.96,7.263l2.19,6.687l2.306,6.226l2.536,5.879l2.651,5.648l2.767,5.649l2.882,5.648l3.112,5.648
	l3.343,5.649l3.804,5.764l4.15,5.764l4.611,5.88l5.188,5.994l5.764,6.11l6.571,6.226l7.378,6.34l8.416,6.456l9.568,6.456
	l10.952,6.455l12.451,6.456l14.064,6.341l14.064-6.341l12.45-6.456l10.952-6.455l9.568-6.456l8.416-6.456l7.378-6.34l6.571-6.226
	l5.764-6.11l5.188-5.994l4.611-5.88l4.15-5.764l3.804-5.764l3.343-5.649l3.113-5.648l2.882-5.648l2.767-5.649l2.652-5.648
	l2.536-5.879l2.306-6.226l2.19-6.687l1.959-7.263l1.729-8.069l1.499-8.877l1.153-10.029l0.922-11.067l0.576-11.644l0.346-11.528
	l0.231-10.836l0.115-9.568v-7.608L249.468,187.46z M126.579,381.594c-51.416,0-93.147-41.732-93.147-93.147
	c0-51.416,41.731-93.147,93.147-93.147s93.147,41.732,93.147,93.147C219.726,339.977,177.994,381.594,126.579,381.594z"/>
<path fill="#333333" d="M109.056,299.167l-0.922,8.992l-0.807,9.107l-1.499,13.257l-1.383,8.531l-1.153,5.648l-1.383,5.649
	l-1.614,5.648l-0.922,4.266l-0.922,5.303l-0.461,3.689l-0.576,3.688l60.522,0.461l-2.767-10.951l-1.153-4.611l-0.807-3.689
	l-1.038-4.842l-0.576-4.034l-0.576-9.915l-0.231-9.222l-0.115-7.609l-0.115-4.957v-1.729l-0.576,0.461l-1.383,1.498l-1.269,1.153
	l-1.614,1.614l-1.729-18.215l0.807-2.075l1.845,17.754l1.844-2.075l2.652-3.229l1.499-1.844l1.614-2.306l0.807-1.729l1.153-3.112
	l0.691-2.307l0.461-2.074v-1.96l-0.461-4.15l-1.153-3.343l-2.421-5.764l-2.421-5.072l-0.576-0.808l-3.343-4.266l-3.458-3.919
	l-0.691,0.23l-11.183,2.767l-4.38,0.922l-2.075,0.347l-2.651,0.115l-3.919-0.23l-2.767-0.115h-1.959h-2.075l-1.153,0.23
	l-0.922,0.346l-0.576,0.346l-0.692,0.461l-0.461,0.461l-0.577,0.691l-0.576,0.923l-0.461,0.807l-0.691,1.384l-0.692,1.613
	l-1.038,3.113l-0.922,2.997l-1.268,3.688l-0.692,1.384l-1.383,2.075l-1.614,2.19l-1.269,1.845l-1.152,1.729l-0.807,1.499
	l-0.692,1.729l-0.23,0.807v0.691v0.346v0.347l0.115,0.461l0.115,0.576l0.23,0.807l0.346,0.923l0.23,0.461l0.346,0.691l0.461,0.923
	l0.461,1.037l0.461,0.922l0.231,0.577l0.23,0.807v0.807l0.23,1.269l0.115,0.922l0.23,1.038l0.346,1.383l0.115,0.346l0.23,0.461
	l0.23,0.231l0.346,0.23l0.346,0.115h0.461h0.346l0.461-0.115l0.346-0.115l0.346-0.23l0.115-0.115l0.461-0.462l0.576-0.691
	l0.577-0.922l0.691-1.269l0.461-0.922l1.153-2.767l0.922-2.536l1.038-3.229l0.461-4.381l0.807-5.994l0.577-3.573l1.153-6.688
	l1.038,0.462l-1.153,7.608L109.056,299.167z M137.069,284.065l10.029,2.767l-3.228,11.067l-1.269-0.115h-1.959h-1.153h-0.692
	l-0.461-0.115l-0.346-0.115l-0.461-0.116l-0.23-0.115h-0.346l-0.461,0.115l-0.346,0.462v0.461l0.115,0.346l0.115,0.23l0.115,0.23
	l0.231,0.23l0.346,0.231l0.922,0.576l0,0h-0.115l-0.807,0.115h-0.922h-1.153l-1.038,0.115l-1.038,0.23l-1.153-0.346L137.069,284.065
	z M131.882,302.511l0.115-0.23l0.115-0.23l0.23-0.23l0.23-0.116l0.577-0.23l0.807-0.115l0.577-0.115l0.807-0.115h1.153l0.922-0.115
	l0.807-0.115l0.346-0.115l0.23-0.115h0.115l0.116-0.115v-0.115v-0.115l-0.116-0.115l-0.115-0.115l-0.346-0.23l-0.922-0.577
	l-0.346-0.23l-0.23-0.23l-0.115-0.115l-0.115-0.23l-0.115-0.23v-0.23l0.115-0.115h0.115h0.23h0.23l0.461,0.115l0.461,0.115
	l0.576,0.115h0.692l1.038-0.115h1.959l0.461,0.115l0.461,0.115l0.461,5.648l-0.461,0.347l-0.461,0.346l-0.461,0.23l-0.807,0.346
	l-0.692,0.346l-0.691,0.23l-0.922,0.346l-0.922,0.23l-1.153,0.23l-0.807,0.116h-0.922l-0.922-0.116l-1.038-0.346l-0.692-0.461
	l-0.461-0.461l-0.461-0.807l-0.115-0.577l-0.116-0.691v-0.691L131.882,302.511z"/>
<rect x="3.574" y="106.302" fill="none" stroke="#333333" stroke-width="5" stroke-linecap="round" stroke-linejoin="round" stroke-miterlimit="10" width="245.895" height="79.313"/>
<g id="LWPOLYLINE_3_">
	
		<polygon fill="none" stroke="#333333" stroke-width="2" stroke-linecap="round" stroke-linejoin="round" stroke-miterlimit="10" points="
		143.525,265.852 143.064,265.044 142.372,264.007 141.45,262.623 140.413,261.24 139.951,260.779 139.721,260.549 139.49,260.434 
		139.375,260.318 139.029,260.202 138.798,260.202 138.453,260.202 138.222,260.202 137.761,260.202 136.724,260.434 
		135.801,260.664 135.225,260.895 134.879,261.01 134.533,261.125 134.188,261.355 133.265,261.701 132.343,261.932 131.42,262.162 
		130.268,262.277 129.23,262.393 128.308,262.508 126.233,262.623 122.313,262.623 119.316,262.623 118.394,262.623 
		117.472,262.738 116.895,262.854 116.434,262.969 116.088,263.084 115.627,263.199 115.281,263.314 114.936,263.43 114.589,263.66 
		114.359,263.892 113.898,264.237 113.091,265.044 112.168,266.197 111.592,267.004 110.67,268.271 110.209,269.079 
		109.632,270.002 108.595,271.27 109.287,270.809 109.863,270.463 110.555,270.232 111.246,270.117 111.938,269.886 
		112.976,269.771 114.128,269.771 115.627,269.771 116.549,269.771 122.774,269.886 125.426,269.886 131.767,268.617 	"/>
</g>
<g>
	<rect x="333.97" y="106.187" fill="none" width="596.118" height="310.452"/>
	<path fill="#333333" d="M367.862,186.077c-17.638,0-26.515-10.26-26.515-25.016v-48.188h13.718v47.496
		c0,10.029,4.035,14.986,12.912,14.986c8.876,0,13.027-4.957,13.027-14.986v-47.496h13.833v48.188
		C394.607,175.471,385.385,186.077,367.862,186.077z"/>
	<path fill="#333333" d="M445.562,184.463l-24.555-57.987c0.691,6.341,1.845,15.448,1.845,28.705v29.282h-12.451v-71.59h17.292
		l25.016,58.102c-0.576-3.919-1.845-14.295-1.845-24.439v-33.662h12.45v71.705h-17.753V184.463z"/>
	<path fill="#333333" d="M480.146,184.463v-71.59h13.833v71.705h-13.833V184.463z"/>
	<path fill="#333333" d="M523.723,184.463l-21.904-71.705h14.757l15.562,59.6l15.102-59.6h13.949l-21.212,71.705H523.723z"/>
	<path fill="#333333" d="M582.977,123.018v20.059h23.057v10.145h-23.057v21.096h28.359v10.26h-41.962v-71.705h41.616l-1.499,10.145
		H582.977z"/>
	<path fill="#333333" d="M637.966,155.758v28.705h-13.719v-71.59h21.327c18.791,0,28.475,6.802,28.475,21.097
		c0,9.799-4.727,15.562-14.525,19.367l18.791,31.241h-15.794l-15.908-28.705h-8.646V155.758z M646.382,145.959
		c8.53,0,13.257-3.458,13.257-11.989c0-7.839-4.496-11.067-14.41-11.067h-7.378v23.172h8.531V145.959z"/>
	<path fill="#333333" d="M731.92,120.136l-6.917,7.839c-4.957-4.381-9.914-6.226-15.908-6.226c-6.456,0-11.067,2.882-11.067,8.531
		c0,5.188,2.767,7.494,14.756,11.183c12.566,3.919,21.212,9.107,21.212,22.595c0,12.911-10.029,22.019-27.206,22.019
		c-11.413,0-19.943-4.035-25.823-9.799l7.263-8.07c4.957,4.611,10.837,7.378,18.215,7.378c7.724,0,13.142-3.689,13.142-10.721
		c0-5.995-2.997-8.761-14.18-12.104c-14.986-4.611-21.558-10.721-21.558-21.558c0-11.874,10.26-19.828,24.324-19.828
		C718.778,111.259,725.695,114.372,731.92,120.136z"/>
	<path fill="#333333" d="M745.754,184.463v-71.59h13.834v71.705h-13.834V184.463z"/>
	<path fill="#333333" d="M802.241,123.709v60.753h-13.833v-60.753h-19.252v-10.836h53.26l-1.499,10.836H802.241z"/>
	<path fill="#333333" d="M834.866,167.862l-4.496,16.601h-14.18l22.249-71.705h16.946l22.25,71.705H863.11l-4.496-16.601H834.866z
		 M832.561,97.771l5.303-10.375L859.767,99.5l-3.458,6.802L832.561,97.771z M846.625,123.249l-9.107,34.238h18.215L846.625,123.249z
		"/>
	<path fill="#333333" d="M396.683,255.476c0,29.052-17.753,36.198-34.815,36.198h-19.483v-71.705h17.638
		C378.814,220.084,396.683,225.849,396.683,255.476z M355.988,281.414h6.686c10.721,0,19.483-4.727,19.483-25.938
		c0-21.557-9.338-25.246-19.944-25.246h-6.34v51.185H355.988z"/>
	<path fill="#333333" d="M423.312,230.229v20.059h23.057v10.146h-23.057v21.096h28.359v10.26h-41.962v-71.705h41.617l-1.499,10.145
		H423.312z"/>
	<path fill="#333333" d="M516.345,226.886l-7.494,7.724c-4.726-3.919-8.761-5.764-14.986-5.764
		c-10.145,0-18.906,7.724-18.906,26.977c0,19.598,5.765,26.975,17.062,26.975c4.035,0,7.955-0.807,11.413-2.766v-18.676h-10.836
		l-1.499-10.145h25.708v35.045c-6.917,4.381-15.448,7.032-25.247,7.032c-19.943,0-31.126-12.911-31.126-37.466
		c0-24.325,14.987-37.352,32.625-37.352C503.433,218.471,510.35,221.698,516.345,226.886z"/>
	<path fill="#333333" d="M573.178,280.492l-1.613,11.182h-40.926v-71.705h13.719v60.523H573.178z"/>
	<path fill="#333333" d="M583.207,291.674v-71.705h13.834v71.705H583.207z"/>
	<path fill="#333333" d="M684.078,227.347l-6.917,7.839c-4.957-4.381-9.914-6.226-15.908-6.226c-6.456,0-11.067,2.882-11.067,8.531
		c0,5.188,2.767,7.493,14.756,11.182c12.566,3.919,21.327,9.107,21.327,22.595c0,12.911-10.029,22.019-27.206,22.019
		c-11.413,0-19.943-4.034-25.823-9.799l7.263-8.069c4.957,4.611,10.837,7.377,18.215,7.377c7.724,0,13.142-3.688,13.142-10.721
		c0-5.994-2.997-8.762-14.18-12.104c-14.986-4.611-21.558-10.721-21.558-21.558c0-11.874,10.261-19.828,24.324-19.828
		C670.937,218.471,677.854,221.583,684.078,227.347z"/>
	<path fill="#333333" d="M722.812,230.921v60.753h-13.833v-60.753h-19.252v-10.836h53.26l-1.499,10.836H722.812z"/>
	<path fill="#333333" d="M777.341,293.288c-17.638,0-26.515-10.26-26.515-25.017v-48.187h13.719v47.496
		c0,10.029,4.034,14.986,12.911,14.986s13.026-4.957,13.026-14.986v-47.496h13.834v48.187
		C804.086,282.682,794.863,293.288,777.341,293.288z"/>
	<path fill="#333333" d="M874.292,255.476c0,29.052-17.753,36.198-34.814,36.198h-19.482v-71.705h17.638
		C856.424,220.084,874.292,225.849,874.292,255.476z M833.598,281.414h6.687c10.722,0,19.482-4.727,19.482-25.938
		c0-21.557-9.338-25.246-19.943-25.246h-6.341v51.185H833.598z"/>
	<path fill="#333333" d="M887.089,291.674v-71.705h13.833v71.705H887.089z"/>
	<path fill="#333333" d="M396.683,362.688c0,29.051-17.753,36.198-34.815,36.198h-19.483v-71.705h17.638
		C378.814,327.296,396.683,333.061,396.683,362.688z M355.988,388.626h6.686c10.721,0,19.483-4.727,19.483-25.938
		c0-21.558-9.338-25.247-19.944-25.247h-6.34v51.186H355.988z"/>
	<path fill="#333333" d="M409.594,398.886v-71.705h13.834v71.705H409.594z"/>
	<path fill="#333333" d="M517.843,334.098l-7.493,7.724c-4.727-3.919-8.762-5.764-14.986-5.764
		c-10.145,0-18.906,7.724-18.906,26.976c0,19.598,5.764,26.976,17.062,26.976c4.035,0,7.954-0.807,11.413-2.767v-18.676h-10.837
		l-1.498-10.145h25.707v35.046c-6.917,4.38-15.447,7.032-25.246,7.032c-19.943,0-31.126-12.912-31.126-37.467
		c0-24.324,14.986-37.352,32.625-37.352C505.047,325.682,511.849,328.91,517.843,334.098z"/>
	<path fill="#333333" d="M545.972,337.44v20.06h23.056v10.145h-23.056v21.097h28.359v10.26h-41.963v-71.705h41.616l-1.498,10.145
		H545.972z"/>
	<path fill="#333333" d="M622.519,398.886l-24.556-57.986c0.692,6.34,1.845,15.447,1.845,28.705v29.281h-12.45v-71.705h17.292
		l25.017,58.102c-0.577-3.919-1.845-14.295-1.845-24.439v-33.662h12.45v71.705H622.519L622.519,398.886z"/>
	<path fill="#333333" d="M715.896,363.033c0,23.633-12.104,37.467-31.356,37.467s-31.472-13.373-31.472-37.352
		c0-23.518,12.22-37.467,31.472-37.467S715.896,339.055,715.896,363.033z M667.478,363.148c0,19.252,6.571,26.86,17.062,26.86
		c10.722,0,16.947-7.608,16.947-26.976c0-19.137-6.11-26.86-16.947-26.86C673.818,336.173,667.478,343.896,667.478,363.148z"/>
	<path fill="#333333" d="M740.105,398.886l-21.904-71.705h14.757l15.562,59.601l15.102-59.601h13.949l-21.212,71.705H740.105z"/>
	<path fill="#333333" d="M790.714,382.285l-4.496,16.601h-14.18l22.249-71.705h16.946l22.249,71.705h-14.525l-4.496-16.601H790.714z
		 M802.588,337.671l-9.107,34.239h18.214L802.588,337.671z"/>
</g>
</svg>
